<?xml version="1.0" standalone="no"?><!DOCTYPE svg PUBLIC "-//W3C//DTD SVG 1.1//EN" "http://www.w3.org/Graphics/SVG/1.1/DTD/svg11.dtd"><svg t="1569572325961" class="icon" viewBox="0 0 1024 1024" version="1.1" xmlns="http://www.w3.org/2000/svg" p-id="4264" xmlns:xlink="http://www.w3.org/1999/xlink" width="48" height="48"><defs><style type="text/css"></style></defs><path d="M170.666667 341.333333c0 81.066667 68.266667 149.333333 149.333333 149.333334S469.333333 422.4 469.333333 341.333333 401.066667 192 320 192 170.666667 256 170.666667 341.333333z" fill="#54BECC" p-id="4265"></path><path d="M554.666667 341.333333c0 81.066667 68.266667 149.333333 149.333333 149.333334S853.333333 422.4 853.333333 341.333333s-68.266667-149.333333-149.333333-149.333333S554.666667 256 554.666667 341.333333z" fill="#9ADD91" p-id="4266"></path><path d="M170.666667 725.333333c0 81.066667 68.266667 149.333333 149.333333 149.333334S469.333333 806.4 469.333333 725.333333s-68.266667-149.333333-149.333333-149.333333S170.666667 640 170.666667 725.333333z" fill="#F0D487" p-id="4267"></path><path d="M554.666667 725.333333c0 81.066667 68.266667 149.333333 149.333333 149.333334S853.333333 806.4 853.333333 725.333333s-68.266667-149.333333-149.333333-149.333333S554.666667 640 554.666667 725.333333z" fill="#FA9474" p-id="4268"></path></svg>