<?xml version="1.0" standalone="no"?><!DOCTYPE svg PUBLIC "-//W3C//DTD SVG 1.1//EN" "http://www.w3.org/Graphics/SVG/1.1/DTD/svg11.dtd"><svg t="1570081754255" class="icon" viewBox="0 0 1024 1024" version="1.1" xmlns="http://www.w3.org/2000/svg" p-id="2318" xmlns:xlink="http://www.w3.org/1999/xlink" width="48" height="48"><defs><style type="text/css"></style></defs><path d="M370.3 864.9H227.7c-37.8 0-68.6-30.8-68.6-68.6V653.7H99.6v142.6c0 70.6 57.5 128.1 128.1 128.1h142.6v-59.5zM864.9 653.7V802c0 34.7-28.2 63-63 63H653.7v59.5H802c67.5 0 122.5-54.9 122.5-122.5V653.7h-59.6zM370.3 99.6H227.7C157 99.6 99.6 157 99.6 227.7v142.6h59.5V227.7c0-37.8 30.8-68.6 68.6-68.6h142.6V99.6zM796.3 99.6H653.7v59.5h142.6c37.8 0 68.6 30.8 68.6 68.6v142.6h59.5V227.7c0-70.7-57.4-128.1-128.1-128.1zM894.7 541.8H129.3c-16.4 0-29.8-13.3-29.8-29.8 0-16.4 13.3-29.8 29.8-29.8h765.4c16.4 0 29.8 13.3 29.8 29.8-0.1 16.4-13.4 29.8-29.8 29.8z" fill="#414142" p-id="2319"></path><path d="M370.5 159.1h-82.2c-16.4 0-29.8-13.3-29.8-29.8 0-16.4 13.3-29.8 29.8-29.8h82.2c16.4 0 29.8 13.3 29.8 29.8s-13.4 29.8-29.8 29.8zM735.7 159.1h-82.2c-16.4 0-29.8-13.3-29.8-29.8 0-16.4 13.3-29.8 29.8-29.8h82.2c16.4 0 29.8 13.3 29.8 29.8s-13.4 29.8-29.8 29.8z" fill="#414142" p-id="2320"></path><path d="M370.5 924.4h-82.2c-16.4 0-29.8-13.3-29.8-29.8 0-16.4 13.3-29.8 29.8-29.8h82.2c16.4 0 29.8 13.3 29.8 29.8s-13.4 29.8-29.8 29.8zM735.7 924.4h-82.2c-16.4 0-29.8-13.3-29.8-29.8 0-16.4 13.3-29.8 29.8-29.8h82.2c16.4 0 29.8 13.3 29.8 29.8s-13.4 29.8-29.8 29.8z" fill="#414142" p-id="2321"></path><path d="M159.1 653.5v82.2c0 16.4-13.3 29.8-29.8 29.8-16.4 0-29.8-13.3-29.8-29.8v-82.2c0-16.4 13.3-29.8 29.8-29.8s29.8 13.4 29.8 29.8zM159.1 288.3v82.2c0 16.4-13.3 29.8-29.8 29.8-16.4 0-29.8-13.3-29.8-29.8v-82.2c0-16.4 13.3-29.8 29.8-29.8s29.8 13.4 29.8 29.8z" fill="#414142" p-id="2322"></path><path d="M924.4 653.5v82.2c0 16.4-13.3 29.8-29.8 29.8-16.4 0-29.8-13.3-29.8-29.8v-82.2c0-16.4 13.3-29.8 29.8-29.8s29.8 13.4 29.8 29.8zM924.4 288.3v82.2c0 16.4-13.3 29.8-29.8 29.8-16.4 0-29.8-13.3-29.8-29.8v-82.2c0-16.4 13.3-29.8 29.8-29.8s29.8 13.4 29.8 29.8z" fill="#414142" p-id="2323"></path></svg>