<?xml version="1.0" standalone="no"?><!DOCTYPE svg PUBLIC "-//W3C//DTD SVG 1.1//EN" "http://www.w3.org/Graphics/SVG/1.1/DTD/svg11.dtd"><svg t="1570082025409" class="icon" viewBox="0 0 1024 1024" version="1.1" xmlns="http://www.w3.org/2000/svg" p-id="2880" xmlns:xlink="http://www.w3.org/1999/xlink" width="48" height="48"><defs><style type="text/css"></style></defs><path d="M153.6 601c-49.485 0-89.6-40.07-89.6-89.5s40.115-89.5 89.6-89.5c49.485 0 89.6 40.07 89.6 89.5S203.085 601 153.6 601z m358.4 0c-49.485 0-89.6-40.07-89.6-89.5S462.515 422 512 422c49.485 0 89.6 40.07 89.6 89.5S561.485 601 512 601z m358.4 0c-49.485 0-89.6-40.07-89.6-89.5s40.115-89.5 89.6-89.5c49.485 0 89.6 40.07 89.6 89.5S919.885 601 870.4 601z" p-id="2881"></path></svg>