<?xml version="1.0" standalone="no"?><!DOCTYPE svg PUBLIC "-//W3C//DTD SVG 1.1//EN" "http://www.w3.org/Graphics/SVG/1.1/DTD/svg11.dtd"><svg t="1570206222953" class="icon" viewBox="0 0 1024 1024" version="1.1" xmlns="http://www.w3.org/2000/svg" p-id="7071" xmlns:xlink="http://www.w3.org/1999/xlink" width="48" height="48"><defs><style type="text/css"></style></defs><path d="M513.5 538.8m-408.7 0a408.7 408.7 0 1 0 817.4 0 408.7 408.7 0 1 0-817.4 0Z" fill="#E16900" p-id="7072"></path><path d="M410.3 82.2l459.5 595.9c-70.1 124.4-203.4 208.3-356.3 208.3-225.7 0-408.7-183-408.7-408.7-0.1-190 129.7-349.8 305.5-395.5zM546.1 70.3l369.7 479.5v0.1c-2 11.9-4.7 23.7-7.9 35.3L509.9 69h3.6c11 0 21.8 0.4 32.6 1.3zM922.2 477.8c0 18-1.1 35.8-3.5 53.2L565.1 72.3c201.4 25.4 357.1 197.2 357.1 405.5z" fill="#FFB800" p-id="7073"></path><path d="M349.508598 231.663864a39.3 39 33.054 1 0 42.543479-65.376237 39.3 39 33.054 1 0-42.543479 65.376237Z" fill="#FFF9F1" p-id="7074"></path><path d="M198.3 560.8c-10.4 0-20.3-6.5-24-16.8-43.7-120.7-9.7-232.7 93.4-307.3 11.4-8.3 27.4-5.7 35.7 5.7 8.3 11.4 5.7 27.4-5.7 35.7-83.3 60.3-110.7 150.8-75.3 248.5 4.8 13.3-2 27.9-15.3 32.7-3 1-5.9 1.5-8.8 1.5z" fill="#FFFFFF" p-id="7075"></path><path d="M907.9 585.2c-8.8 32.8-21.8 64-38.1 92.9L410.3 82.2c31.9-8.3 65.3-12.9 99.6-13.2l398 516.2zM918.8 531c-0.8 6.4-1.7 12.6-2.9 18.9L546.1 70.3c6.4 0.5 12.7 1.1 19 1.9L918.8 531z" fill="#FFD169" p-id="7076"></path><path d="M596.5 708.1c-11.3 0-22.7-3.8-32.2-11.5L378 544.1c-11.1-9.1-17.9-22.5-18.6-36.8-0.7-14.3 4.7-28.3 14.8-38.5l186.4-186.4c19.9-19.8 52-19.8 71.9 0 19.9 19.9 19.9 52 0 71.9L485.8 501l142.9 116.9c21.7 17.8 24.9 49.8 7.2 71.5-10 12.3-24.7 18.7-39.4 18.7z" fill="#E16900" p-id="7077"></path></svg>