<?xml version="1.0" standalone="no"?><!DOCTYPE svg PUBLIC "-//W3C//DTD SVG 1.1//EN" "http://www.w3.org/Graphics/SVG/1.1/DTD/svg11.dtd"><svg t="1570081835426" class="icon" viewBox="0 0 1024 1024" version="1.1" xmlns="http://www.w3.org/2000/svg" p-id="3126" xmlns:xlink="http://www.w3.org/1999/xlink" width="48" height="48"><defs><style type="text/css"></style></defs><path d="M174.498046 520.672297m-132.363819 0a132.36382 132.36382 0 1 0 264.727639 0 132.36382 132.36382 0 1 0-264.727639 0Z" fill="" p-id="3127"></path><path d="M848.334295 181.32155m-132.365035 0a132.365036 132.365036 0 1 0 264.730071 0 132.365036 132.365036 0 1 0-264.730071 0Z" fill="" p-id="3128"></path><path d="M682.91601 847.859934m-132.365035 0a132.365036 132.365036 0 1 0 264.730071 0 132.365036 132.365036 0 1 0-264.730071 0Z" fill="" p-id="3129"></path><path d="M845.780043 13.878108c-90.6626 0-164.431857 73.75831-164.431857 164.42091 0 26.819656 6.582675 52.082434 18.02816 74.479583L321.073242 440.109943c-28.065158-50.648403-82.014629-85.032296-143.889581-85.032296-90.663816 0-164.430641 73.752229-164.430641 164.414828s73.766825 164.430641 164.430641 164.430641c54.505325 0 102.781922-26.784383 132.710468-67.761898l221.965796 160.904555c-9.708594 20.965551-15.278081 44.205604-15.278082 68.79333 0 90.6626 73.755878 164.419694 164.418478 164.419694 90.655302 0 164.431857-73.757094 164.431857-164.419694 0-90.67233-73.786286-164.425775-164.431857-164.425776-48.600135 0-92.209747 21.3122-122.329255 54.961442L332.647657 572.554039c5.705715-16.676839 8.941102-34.4739 8.941102-53.061564 0-11.492922-1.20658-22.710957-3.453107-33.543422l389.932252-193.063816c29.889625 30.70212 71.590844 49.854152 117.699975 49.854152 90.6626 0 164.418477-73.766825 164.418478-164.42091 0-90.673546-73.743715-164.440371-164.406314-164.440371zM681.000321 730.095495c63.830781 0 115.770906 51.924313 115.770906 115.763608 0 63.830781-51.940125 115.749012-115.770906 115.749012-63.839295 0-115.758743-51.918232-115.758743-115.749012 0-63.838079 51.919448-115.763608 115.758743-115.763608zM177.183661 635.260949c-63.833213 0-115.768473-51.924313-115.768474-115.768474 0-63.827132 51.925529-115.753878 115.768474-115.753877 63.836862 0 115.767257 51.926746 115.767257 115.753877-0.00973 63.842944-51.940125 115.768473-115.767257 115.768474zM845.780043 294.066275c-63.841728 0-115.770906-51.930395-115.770906-115.758743 0-63.841728 51.927962-115.757527 115.770906-115.757527 63.83443 0 115.749012 51.915799 115.749012 115.757527 0 63.828348-51.924313 115.758743-115.749012 115.758743z m0 0" fill="" p-id="3130"></path></svg>