<?xml version="1.0" standalone="no"?><!DOCTYPE svg PUBLIC "-//W3C//DTD SVG 1.1//EN" "http://www.w3.org/Graphics/SVG/1.1/DTD/svg11.dtd"><svg t="1569574059923" class="icon" viewBox="0 0 1024 1024" version="1.1" xmlns="http://www.w3.org/2000/svg" p-id="25706" xmlns:xlink="http://www.w3.org/1999/xlink" width="48" height="48"><defs><style type="text/css"></style></defs><path d="M867.2 359.2v553.6c0 40-30.4 72-67.2 72H224c-36.8 0-67.2-32.8-67.2-72V359.2" fill="#FCD953" p-id="25707"></path><path d="M800 1008H224c-49.6 0-90.4-42.4-90.4-95.2V359.2h45.6v553.6c0 27.2 20 48.8 44.8 48.8h576c24.8 0 44.8-22.4 44.8-48.8V359.2h45.6v553.6c0 52.8-40.8 95.2-90.4 95.2z" fill="#444444" p-id="25708"></path><path d="M650.4 972.8h-45.6V737.6c0-63.2-41.6-115.2-92.8-115.2s-92.8 51.2-92.8 115.2v236h-45.6V737.6c0-88.8 62.4-160.8 138.4-160.8s138.4 72 138.4 160.8v235.2z" fill="#444444" p-id="25709"></path><path d="M836.8 366.4l10.4-0.8L536.8 46.4c-14.4-15.2-38.4-15.2-52.8 0L177.6 365.6l7.2 0.8" fill="#FCD953" p-id="25710"></path><path d="M60 493.6l-33.6-31.2 16.8 16L25.6 464c0.8-0.8 1.6-2.4 2.4-3.2L457.6 26.4C472 12 491.2 4 512 4s40 8 54.4 22.4l431.2 436 0.8 1.6c0-0.8-0.8-0.8-0.8-1.6l-33.6 31.2-0.8-0.8L533.6 58.4c-11.2-12-32-12-43.2 0L61.6 492.8c-0.8 0-0.8 0.8-1.6 0.8z" fill="#444444" p-id="25711"></path></svg>