<?xml version="1.0" standalone="no"?><!DOCTYPE svg PUBLIC "-//W3C//DTD SVG 1.1//EN" "http://www.w3.org/Graphics/SVG/1.1/DTD/svg11.dtd"><svg t="1569574414748" class="icon" viewBox="0 0 1024 1024" version="1.1" xmlns="http://www.w3.org/2000/svg" p-id="38653" xmlns:xlink="http://www.w3.org/1999/xlink" width="48" height="48"><defs><style type="text/css"></style></defs><path d="M661.030936 466.452654c-19.566879-28.26327-45.656051-52.178344-73.91932-67.397028C545.80376 375.140552 502.321807 364.270064 456.665756 364.270064h-8.696391C391.442826 370.792357 341.438579 396.881529 302.304821 440.363482 287.086138 457.756263 274.041552 479.49724 265.345161 501.238217c-28.26327 117.401274 43.481953 158.70913 93.4862 184.798301 15.218684 6.522293 28.26327 15.218684 39.133758 28.26327 19.566879 39.133758 21.740977 84.789809 6.522293 126.097664-4.348195 10.870488-6.522293 23.915074-8.696391 34.785563-6.522293 30.437367 2.174098 63.048832 19.566879 89.138004 28.26327 30.437367 65.22293 45.656051 104.356688 43.481953 8.696391 0 17.392781 0 26.089172-2.174097 41.307856-8.696391 78.267516-32.611465 102.18259-65.22293 23.915074-34.785563 41.307856-73.919321 50.004246-115.227176 17.392781-76.093418 21.740977-156.535032 10.870489-234.802548-6.522293-45.656051-23.915074-86.963907-47.830149-123.923567z" fill="#F78DA0" p-id="38654"></path><path d="M358.831361 429.492994m-132.619958 0a132.619958 132.619958 0 1 0 265.239915 0 132.619958 132.619958 0 1 0-265.239915 0Z" fill="#FFC5CF" p-id="38655"></path><path d="M788.172168 391.33758c-21.740977-30.437367-50.004246-56.526539-82.615712-73.919321-43.481953-23.915074-91.312102-36.95966-141.316348-36.95966h-10.870488c-60.874735 6.522293-117.401274 36.95966-158.70913 82.615711-17.392781 19.566879-30.437367 43.481953-41.307855 67.397028-30.437367 128.271762 47.830149 173.927813 102.18259 202.191082 15.218684 6.522293 30.437367 17.392781 43.481953 30.437368 21.740977 41.307856 23.915074 93.4862 6.522293 136.968153-4.348195 13.044586-6.522293 26.089172-8.696391 39.133758-6.522293 34.785563 2.174098 69.571125 21.740977 95.660297 30.437367 32.611465 71.745223 50.004246 115.227176 47.830148 10.870488 0 19.566879 0 30.437368-2.174097 45.656051-8.696391 84.789809-34.785563 113.053078-71.745223 26.089172-36.95966 45.656051-80.441614 54.352442-126.097665 19.566879-84.789809 23.915074-171.753715 10.870488-256.543524-8.696391-47.830149-28.26327-93.4862-54.352441-134.794055zM429.446053 206.539278C429.446053 130.44586 368.571318 67.397028 294.651998 67.397028 220.732677 67.397028 159.857942 130.44586 159.857942 206.539278c0 78.267516 60.874735 139.142251 134.794056 139.142251 36.95966 0 69.571125-15.218684 95.660297-41.307856s39.133758-60.874735 39.133758-97.834395z m95.660297 6.522293c28.26327 0 52.178344-17.392781 63.048832-43.481953s4.348195-56.526539-15.218683-76.093418C553.36962 73.919321 525.10635 67.397028 499.017178 78.267516s-41.307856 36.95966-41.307855 65.22293c0 36.95966 30.437367 67.397028 67.397027 69.571125z m180.450106 17.392781c36.95966 0 67.397028-30.437367 67.397028-69.571125 0-39.133758-28.26327-71.745223-67.397028-71.745223-36.95966 0-67.397028 30.437367-69.571125 69.571126 2.174098 36.95966 30.437367 69.571125 69.571125 71.745222z m145.664544-58.700637c-28.26327 0-52.178344 17.392781-63.048832 43.481954s-4.348195 56.526539 15.218683 76.093418c19.566879 19.566879 47.830149 26.089172 73.919321 15.218684 26.089172-10.870488 41.307856-36.95966 41.307855-65.22293 0-19.566879-6.522293-36.95966-19.566879-50.004247-13.044586-13.044586-30.437367-19.566879-47.830148-19.566879z" fill="#EC1940" p-id="38656"></path><path d="M449.012932 465.2569m-143.490446 0a143.490446 143.490446 0 1 0 286.980892 0 143.490446 143.490446 0 1 0-286.980892 0Z" fill="#FF2D54" p-id="38657"></path></svg>