<?xml version="1.0" standalone="no"?><!DOCTYPE svg PUBLIC "-//W3C//DTD SVG 1.1//EN" "http://www.w3.org/Graphics/SVG/1.1/DTD/svg11.dtd"><svg t="1569762484312" class="icon" viewBox="0 0 1024 1024" version="1.1" xmlns="http://www.w3.org/2000/svg" p-id="10131" xmlns:xlink="http://www.w3.org/1999/xlink" width="48" height="48"><defs><style type="text/css"></style></defs><path d="M372.01171374 420.2835362L463.72817754 512l-91.7164638 91.7164638c-13.27475107 13.27475107-13.27475107 34.99707139 0 48.27182246s34.99707139 13.27475107 48.27182246 0L512 560.27182246l91.7164638 91.7164638c13.27475107 13.27475107 34.99707139 13.27475107 48.27182246 0s13.27475107-34.99707139 0-48.27182246L560.27182246 512l91.7164638-91.7164638c13.27475107-13.27475107 13.27475107-34.99707139 0-48.27182246s-34.99707139-13.27475107-48.27182246 0L512 463.72817754l-91.7164638-91.7164638c-13.27475107-13.27475107-34.99707139-13.27475107-48.27182246 0s-13.27475107 34.99707139 0 48.27182246z" fill="#1296db" p-id="10132"></path><path d="M162.029284 861.970716C355.11657595 1055.05800795 668.88342405 1055.05800795 861.970716 861.970716s193.08729124-506.85414075 0-699.941432-506.85414075-193.08729124-699.941432 0S-31.05800795 668.88342405 162.029284 861.970716z m651.66960954-651.66960954C980.23668265 376.83889556 980.23668265 647.16110444 813.69889354 813.69889354S376.83889556 980.23668265 210.30110646 813.69889354s-166.53778911-436.85999798 0-603.39778708 436.85999798-166.53778911 603.39778708 0z" fill="#1296db" p-id="10133"></path></svg>