<?xml version="1.0" standalone="no"?><!DOCTYPE svg PUBLIC "-//W3C//DTD SVG 1.1//EN" "http://www.w3.org/Graphics/SVG/1.1/DTD/svg11.dtd"><svg t="1569574694305" class="icon" viewBox="0 0 1024 1024" version="1.1" xmlns="http://www.w3.org/2000/svg" p-id="3950" xmlns:xlink="http://www.w3.org/1999/xlink" width="48" height="48"><defs><style type="text/css"></style></defs><path d="M485.3 502.9m-457.3 0a457.3 457.3 0 1 0 914.6 0 457.3 457.3 0 1 0-914.6 0Z" fill="#D7DEFF" p-id="3951"></path><path d="M512.5 1009.5c-67.2 0-132.5-13.2-193.9-39.1-59.3-25.1-112.6-61-158.3-106.7-45.7-45.7-81.6-99-106.7-158.3-26-61.4-39.1-126.6-39.1-193.9 0-67.2 13.2-132.5 39.1-193.9 25.1-59.3 61-112.6 106.7-158.3s99-81.6 158.3-106.7c61.4-26 126.6-39.1 193.9-39.1 73.8 0 144.8 15.8 211.2 46.9 6.8 3.2 9.7 11.2 6.5 18-3.2 6.8-11.2 9.7-18 6.5-62.7-29.4-129.9-44.3-199.7-44.3-259.7 0-471 211.3-471 471s211.3 471 471 471 471-211.3 471-471c0-145.3-65.6-280.3-179.9-370.3-5.9-4.6-6.9-13.1-2.3-19 4.6-5.9 13.1-6.9 19-2.3 58 45.6 105.9 104.5 138.6 170.4 34.3 69.1 51.7 143.5 51.7 221.2 0 67.2-13.2 132.5-39.1 193.9-25.1 59.3-61 112.6-106.7 158.3-45.7 45.7-99 81.6-158.3 106.7-61.5 25.9-126.7 39-194 39z" fill="#2E3468" p-id="3952"></path><path d="M777.7 525H247.3c-7.5 0-13.5-6.1-13.5-13.5 0-7.5 6.1-13.5 13.5-13.5h530.4c7.5 0 13.5 6.1 13.5 13.5 0.1 7.4-6 13.5-13.5 13.5z" fill="#2E3468" p-id="3953"></path><path d="M512.5 790.2c-7.5 0-13.5-6.1-13.5-13.5V246.3c0-7.5 6.1-13.5 13.5-13.5 7.5 0 13.5 6.1 13.5 13.5v530.4c0.1 7.4-6 13.5-13.5 13.5z" fill="#2E3468" p-id="3954"></path></svg>