<?xml version="1.0" standalone="no"?><!DOCTYPE svg PUBLIC "-//W3C//DTD SVG 1.1//EN" "http://www.w3.org/Graphics/SVG/1.1/DTD/svg11.dtd"><svg t="1569574032935" class="icon" viewBox="0 0 1041 1024" version="1.1" xmlns="http://www.w3.org/2000/svg" p-id="25572" xmlns:xlink="http://www.w3.org/1999/xlink" width="48.796875" height="48"><defs><style type="text/css"></style></defs><path d="M569.833333 35.925l-0.6-0.558333c-30.145833-26.433333-63.466667-26.566667-96.341666-0.379167l-0.55 0.4375L0 507.645833l17.675 17.683334 471.333333-471.2125c23.1-18.170833 42.7125-18.229167 63.45-0.2125L1024.004167 525.333333l17.675-17.683333L569.833333 35.925z" p-id="25573"></path><path d="M905.066667 950.208333c-4.233333 24.516667-16.754167 37.145833-39.316667 39.675h-196.945833v-172.458333l-0.029167-0.8125c-2.55-39.195833-24.758333-61.616667-66-66.633333l-162.375-0.0875-1.1 0.05c-41.116667 3.629167-64.079167 26.7125-66.416667 66.758333l-0.020833 174.404167-197.05-1.216667c-24.295833-2.120833-36.416667-14.270833-39.204167-39.316667V443.733333h-25v507.5125l0.066667 1.3c3.9375 37.741667 25.570833 59.2875 62.558333 62.3l223.629167 1.416667v-198.458333c1.683333-27.020833 14.995833-40.279167 43.104167-42.9125h159.520833c28.866667 3.691667 41.454167 16.1875 43.316667 42.958333v197.0375h222.616666l1.283334-0.066667c34.758333-3.5875 56.266667-24.883333 62.204166-61.575l0.158334-0.991666V443.733333h-25V950.208333z" p-id="25574"></path></svg>