<?xml version="1.0" standalone="no"?><!DOCTYPE svg PUBLIC "-//W3C//DTD SVG 1.1//EN" "http://www.w3.org/Graphics/SVG/1.1/DTD/svg11.dtd"><svg t="1570378853107" class="icon" viewBox="0 0 1024 1024" version="1.1" xmlns="http://www.w3.org/2000/svg" p-id="3060" xmlns:xlink="http://www.w3.org/1999/xlink" width="48" height="48"><defs><style type="text/css"></style></defs><path d="M922.7 291.4c-0.3-0.9-0.7-1.8-1.1-2.7-41.7-92.3-100.8-147.5-175.8-164.1-96.9-21.5-190.9 30.6-236.4 61.9-45.6-31.2-139.5-83.3-236.5-61.9-74.9 16.5-134.1 71.7-175.7 164.1-0.4 0.9-0.8 1.8-1.1 2.7-107.5 288.4 370 589.1 390.4 601.8 7 4.3 14.9 6.5 22.9 6.5s15.9-2.2 22.9-6.5c20.3-12.7 497.9-313.4 390.4-601.8z" fill="#EE4F43" p-id="3061"></path><path d="M509.4 948.5c-17.2 0-34-4.8-48.5-13.8-54.6-34-529.5-341-410.5-660.3 1-2.6 1.7-4.3 2.5-6C101.1 161.5 171.6 97 262.4 77c97.2-21.4 188.8 17.1 247 51.7 58.2-34.6 150-73.2 247-51.7 90.7 20 161.3 84.5 209.7 191.6 0.8 1.7 1.6 3.8 2.4 5.8 118.9 319.3-355.8 626.3-410.4 660.2-14.8 9.1-31.5 13.9-48.7 13.9zM320.1 168.3c-12.1 0-24.4 1.2-36.7 3.9-59.1 13.1-106.8 59-141.8 136.5C52.1 548.8 470.2 824.8 509.4 850c38.5-24.7 457.3-301 367.6-541.6 0-0.1 0-0.1-0.1-0.2l45.8-16.9-45.8 16.8c-34.8-77-82.5-122.9-141.6-136-78.3-17.3-157.8 26.8-198.3 54.6-16.6 11.4-38.6 11.4-55.2 0-34.1-23.4-96.1-58.4-161.7-58.4z" fill="#FFFFFF" p-id="3062"></path></svg>