<?xml version="1.0" standalone="no"?><!DOCTYPE svg PUBLIC "-//W3C//DTD SVG 1.1//EN" "http://www.w3.org/Graphics/SVG/1.1/DTD/svg11.dtd"><svg t="1570372118431" class="icon" viewBox="0 0 1024 1024" version="1.1" xmlns="http://www.w3.org/2000/svg" p-id="3351" xmlns:xlink="http://www.w3.org/1999/xlink" width="48" height="48"><defs><style type="text/css"></style></defs><path d="M735.9 937.5c-13.8 0-27.7-3.4-40-9.8l-182.8-96.3-182.6 96.2c-28 14.5-62.4 12.5-88.1-4.6-26.5-17.9-40.2-49.3-34.9-79.9l35.6-208.2L89.2 484.6c-22.5-21.9-30.1-53.7-19.8-83 10.2-28.9 35.8-49.6 67-54.1L346.2 317l91.1-184.9c13.9-28.1 43.6-46.2 75.8-46.2 32.3 0 62 18.1 75.8 46.2L680 317l209.8 30.5c31.1 4.5 56.8 25.2 67 54 10.3 29.3 2.7 61.1-19.8 83L783.1 634.9l35.7 208.3c5.3 30.6-8.4 62-34.8 79.8-14.4 9.5-30.9 14.5-48.1 14.5z" fill="#FFFFFF" p-id="3352"></path><path d="M735.9 937.5c-13.8 0-27.7-3.4-40-9.8l-182.8-96.3-182.6 96.2c-28 14.5-62.4 12.5-88.1-4.6-26.5-17.9-40.2-49.3-34.9-79.9l35.6-208.2L89.2 484.6c-22.5-21.9-30.1-53.7-19.8-83 10.2-28.9 35.8-49.6 67-54.1L346.2 317l91.1-184.9c13.9-28.1 43.6-46.2 75.8-46.2 32.3 0 62 18.1 75.8 46.2L680 317l209.8 30.5c31.1 4.5 56.8 25.2 67 54 10.3 29.3 2.7 61.1-19.8 83L783.1 634.9l35.7 208.3c5.3 30.6-8.4 62-34.8 79.8-14.4 9.5-30.9 14.5-48.1 14.5zM513.1 780.6l203.6 107.2c13.1 6.8 29.9 5.9 42.2-2.2 11.8-8 17.8-21.4 15.5-34.9l-39.6-231.5 170.8-166.8c9.8-9.6 13.2-23.3 8.8-35.9-4.5-12.8-16.7-22.4-31-24.5l-233.2-33.9-101.6-206.2c-6.3-12.8-20.2-21.1-35.5-21.1-15.2 0-29.2 8.3-35.5 21.1L376.1 358.1 142.8 392c-14.4 2.1-26.5 11.7-31 24.5-4.4 12.6-1.1 26.3 8.8 35.9l170.8 166.9-39.6 231.5c-2.3 13.5 3.7 26.9 15.6 35 12.1 8.1 28.9 9 42.3 2.1l203.4-107.3z" fill="#767676" p-id="3353"></path></svg>