<?xml version="1.0" standalone="no"?><!DOCTYPE svg PUBLIC "-//W3C//DTD SVG 1.1//EN" "http://www.w3.org/Graphics/SVG/1.1/DTD/svg11.dtd"><svg t="1570378405872" class="icon" viewBox="0 0 1024 1024" version="1.1" xmlns="http://www.w3.org/2000/svg" p-id="6520" xmlns:xlink="http://www.w3.org/1999/xlink" width="48" height="48"><defs><style type="text/css"></style></defs><path d="M512 924.16l-162.56-136.32C64 548.48 64 406.4 64 352a252.8 252.8 0 0 1 448-160 252.8 252.8 0 0 1 448 160c0 53.44 0 195.52-285.44 434.88z" fill="#d81e06" p-id="6521"></path><path d="M707.2 68.16A283.2 283.2 0 0 0 512 145.28 285.12 285.12 0 0 0 32 352c0 57.6 0 210.56 296.96 459.2l162.56 136.32a32 32 0 0 0 40.96 0l162.56-136.32C992 563.52 992 410.56 992 352a285.12 285.12 0 0 0-284.8-283.84z m-53.44 695.04L512 882.24l-141.76-119.04C96 533.44 96 402.24 96 352a221.12 221.12 0 0 1 391.36-140.8 32 32 0 0 0 49.28 0A221.12 221.12 0 0 1 928 352c0 50.24 0 181.44-274.24 411.2z" fill="#d81e06" p-id="6522"></path></svg>