<?xml version="1.0" standalone="no"?><!DOCTYPE svg PUBLIC "-//W3C//DTD SVG 1.1//EN" "http://www.w3.org/Graphics/SVG/1.1/DTD/svg11.dtd"><svg t="1569764257031" class="icon" viewBox="0 0 1080 1024" version="1.1" xmlns="http://www.w3.org/2000/svg" p-id="3530" xmlns:xlink="http://www.w3.org/1999/xlink" width="50.625" height="48"><defs><style type="text/css"></style></defs><path d="M788.351 519.152L686.185 462.92 566.337 569.046V564.2l-6.443 2.024-67.43-216.556-4 2.136-164.21-101.126L1080.383 0.088 788.352 519.153z m-208.509 19.867l93.756-83.025-93.756-51.595v134.62zM505.275 345.37l61.062 196.108v-143.28h2.241l-4.338-2.386 335.71-263.676-406.205 216.846 11.53-3.612z m-16.335-9.167L961.48 83.952l7.329 11.32-380.114 298.549L783.15 500.84l268.304-476.894-695.352 230.44 132.838 81.816z m-61.222 118.139c-7-43.645-46.782-54.506-47.177-54.603l2.54-9.845c1.903 0.492 46.596 12.7 54.635 62.827l-9.998 1.62z m19.552-35.05l-9.401-3.782c1.677-4.2-9.144-12.191-17.65-16.07l4.193-9.248c2.983 1.355 28.978 13.74 22.858 29.1z m50.684 171.516l1.75 10.014c-1.46 0.25-120.606 22.149-184.602 98.45 9.119 0.031 17.48 0.781 24.939 2.12 30.292 5.418 48.152 20.318 46.612 38.88-2.161 25.938-26.592 44.257-48.741 52.764-24.197 9.288-47.33 8.192-58.924-2.806-6.023-5.709-11.877-16.723-5.515-36.743a173.177 173.177 0 0 1 20.786-43.194C201.543 720.291 70.325 804.098 9.756 1024L0 1021.29c23.1-83.878 70.753-198.59 166.581-268.674 48.443-35.429 96.918-50.217 135.2-52.893 23.077-30.229 56.772-56.24 99.804-76.744 50.112-23.874 94.507-31.84 96.37-32.171zM283.116 756.567c-3.814 12.038-2.87 20.883 2.83 26.277 8.643 8.2 28.075 8.482 48.346 0.701 18.391-7.055 40.5-22.842 42.266-44.12 1.056-12.683-13.981-23.681-38.291-28.035a147.948 147.948 0 0 0-31.067-2.024 164.662 164.662 0 0 0-24.084 47.2z m483.876-174.105l3.75-9.433c0.322 0.12 32.364 12.594 63.762 0l3.757 9.433c-11.99 4.814-23.907 6.419-34.461 6.419-20.472 0-35.848-6.031-36.808-6.419z m105.972 19.844l3.338 9.594c-27.108 9.49-49.797 12.958-68.479 12.958-49.466 0-70.866-24.334-72.067-25.753l7.7-6.604c0.371 0.427 37.646 41.968 129.508 9.805z" fill="#034786" p-id="3531"></path></svg>