<?xml version="1.0" standalone="no"?><!DOCTYPE svg PUBLIC "-//W3C//DTD SVG 1.1//EN" "http://www.w3.org/Graphics/SVG/1.1/DTD/svg11.dtd"><svg t="1569764286367" class="icon" viewBox="0 0 1024 1024" version="1.1" xmlns="http://www.w3.org/2000/svg" p-id="3657" xmlns:xlink="http://www.w3.org/1999/xlink" width="48" height="48"><defs><style type="text/css"></style></defs><path d="M313.992 914.286c-20.376 0-40.229-6.27-56.947-18.808-30.302-21.943-44.93-58.515-38.661-95.086l24.032-141.061c3.135-18.286-3.134-36.572-16.196-49.11L123.298 509.91c-26.645-26.123-36.049-64.262-24.555-99.789 11.494-35.526 41.796-61.126 78.89-66.35l141.583-20.376c18.286-2.612 33.96-14.106 41.796-30.302L424.23 164.57c16.718-33.959 50.155-54.857 87.771-54.857s71.053 20.898 87.249 54.335l63.739 128.522c8.359 16.196 24.032 27.69 41.796 30.302l141.583 20.376c37.094 5.224 67.396 30.824 78.89 66.351s2.09 73.665-24.555 99.788l-102.4 99.788c-13.061 12.538-19.33 31.346-16.196 49.11l24.033 141.06c6.27 37.095-8.36 73.144-38.661 95.087-30.302 21.943-69.486 24.555-102.4 7.314L538.122 836.44c-16.195-8.36-35.526-8.36-51.722 0l-126.955 66.873c-14.629 7.315-30.302 10.972-45.453 10.972z m162.481-96.653z" fill="#F4EA2A" p-id="3658"></path></svg>