<?xml version="1.0" standalone="no"?><!DOCTYPE svg PUBLIC "-//W3C//DTD SVG 1.1//EN" "http://www.w3.org/Graphics/SVG/1.1/DTD/svg11.dtd"><svg t="1569764338611" class="icon" viewBox="0 0 1024 1024" version="1.1" xmlns="http://www.w3.org/2000/svg" p-id="3922" xmlns:xlink="http://www.w3.org/1999/xlink" width="48" height="48"><defs><style type="text/css"></style></defs><path d="M958.836364 186.088727c0-46.173091-37.608727-83.781818-83.781819-83.781818s-83.781818 37.608727-83.781818 83.781818 37.608727 83.781818 83.781818 83.781818 83.781818-37.608727 83.781819-83.781818z" fill="#FEC500" p-id="3923"></path><path d="M875.054545 65.070545c-66.746182 0-121.018182 54.272-121.018181 121.018182 0 15.453091 2.885818 30.254545 8.192 43.845818L246.132364 501.201455c-22.062545-29.696-57.344-48.872727-97.186909-48.872728-66.839273 0-121.018182 54.178909-121.018182 121.018182s54.178909 121.018182 121.018182 121.018182c39.842909 0 75.124364-19.269818 97.186909-48.872727l285.602909 150.155636c-4.933818 13.125818-7.633455 27.461818-7.633455 42.263273 0 66.746182 54.272 121.018182 121.018182 121.018182s121.018182-54.272 121.018182-121.018182-54.272-121.018182-121.018182-121.018182c-38.539636 0-72.890182 18.152727-95.138909 46.266182L263.447273 612.538182c4.189091-12.288 6.516364-25.506909 6.516363-39.191273 0-13.684364-2.327273-26.903273-6.516363-39.191273l517.585454-272.011636c22.248727 27.368727 56.133818 44.962909 94.021818 44.962909 66.746182 0 121.018182-54.272 121.018182-121.018182s-54.272-121.018182-121.018182-121.018182zM645.12 754.129455c46.173091 0 83.781818 37.608727 83.781818 83.781818s-37.608727 83.781818-83.781818 83.781818-83.781818-37.608727-83.781818-83.781818 37.608727-83.781818 83.781818-83.781818z m146.152727-568.040728c0-46.173091 37.608727-83.781818 83.781818-83.781818s83.781818 37.608727 83.781819 83.781818-37.608727 83.781818-83.781819 83.781818-83.781818-37.608727-83.781818-83.781818z" fill="#353535" p-id="3924"></path><path d="M561.338182 837.911273c0 46.173091 37.608727 83.781818 83.781818 83.781818s83.781818-37.608727 83.781818-83.781818-37.608727-83.781818-83.781818-83.781818-83.781818 37.608727-83.781818 83.781818z" fill="#FEC500" p-id="3925"></path></svg>