<?xml version="1.0" standalone="no"?><!DOCTYPE svg PUBLIC "-//W3C//DTD SVG 1.1//EN" "http://www.w3.org/Graphics/SVG/1.1/DTD/svg11.dtd"><svg t="1569764082983" class="icon" viewBox="0 0 1041 1024" version="1.1" xmlns="http://www.w3.org/2000/svg" p-id="3051" xmlns:xlink="http://www.w3.org/1999/xlink" width="48.796875" height="48"><defs><style type="text/css"></style></defs><path d="M355.081051 630.185374c0 147.736566 138.139152 267.447596 308.569212 267.447596 170.426182 0 308.716606-119.712323 308.716606-267.447596S834.076444 362.436525 663.650263 362.436525c-170.428768 0-308.569212 120.013576-308.569212 267.748849z m0 0" fill="#E68653" p-id="3052"></path><path d="M520.579879 57.982707c-287.094949 0-520.579879 203.477333-520.579879 453.862141A419.917576 419.917576 0 0 0 145.296808 826.203798l-65.338182 98.386747a26.810182 26.810182 0 0 0-1.373091 27.416566 26.505051 26.505051 0 0 0 23.455031 14.011475h418.536727c287.091071 0 520.570828-204.390141 520.570828-454.172445 0.002586-249.775838-233.477172-453.863434-520.568242-453.863434z m-0.078869 860.515556H145.693737l49.171394-72.211394a26.241293 26.241293 0 0 0 6.491798-10.047354 27.068768 27.068768 0 0 0-8.347151-30.930747c-94.626909-78.078707-146.734545-182.140121-146.734546-293.779394 0-223.578505 212.604121-406.030222 474.225778-406.030222 261.616485 0 474.373172 182.451717 474.373172 406.496969 0.001293 224.050424-212.756687 406.502141-474.373172 406.502142z" fill="#583A25" p-id="3053"></path><path d="M286.086465 475.201939a45.147798 45.147798 0 0 0-68.392081 41.236687 45.154263 45.154263 0 0 0 21.761293 41.240566 45.159434 45.159434 0 0 0 46.630788 0 45.159434 45.159434 0 0 0 21.762586-41.240566 45.158141 45.158141 0 0 0-21.762586-41.236687zM801.693737 475.201939a45.14004 45.14004 0 0 0-46.626909 0 45.138747 45.138747 0 0 0-21.76 41.236687 45.137455 45.137455 0 0 0 21.76 41.240566 45.151677 45.151677 0 0 0 68.389495-41.240566 45.15297 45.15297 0 0 0-21.762586-41.236687zM520.503596 472.322586c-24.482909 0.071111-44.444444 19.640889-45.000404 44.11604a45.142626 45.142626 0 0 0 27.174788 42.453334 45.151677 45.151677 0 0 0 49.570909-9.181091 45.163313 45.163313 0 0 0 10.163717-49.374384 45.155556 45.155556 0 0 0-41.90901-28.013899z" fill="#583A25" p-id="3054"></path></svg>