<?xml version="1.0" standalone="no"?><!DOCTYPE svg PUBLIC "-//W3C//DTD SVG 1.1//EN" "http://www.w3.org/Graphics/SVG/1.1/DTD/svg11.dtd"><svg t="1569764319991" class="icon" viewBox="0 0 1024 1024" version="1.1" xmlns="http://www.w3.org/2000/svg" p-id="3784" xmlns:xlink="http://www.w3.org/1999/xlink" width="48" height="48"><defs><style type="text/css"></style></defs><path d="M934.4 195.84H329.27744c-27.66848 0-37.376 26.4192-37.376 26.4192-24.14592 48.98816-61.696 72.78592-109.568 72.78592H81.28512a39.72096 39.72096 0 0 0-39.68 39.68V791.04a39.72096 39.72096 0 0 0 39.68 39.68H934.4a39.72096 39.72096 0 0 0 39.68-39.68V235.52a39.72096 39.72096 0 0 0-39.68-39.68z m-486.08256 29.75744h119.04a29.75744 29.75744 0 1 1 0 59.51488H448.31744a29.75744 29.75744 0 1 1 0-59.51488z m59.52512 535.68512c-120.53504 0-218.24512-97.71008-218.24512-218.24512s97.71008-218.24512 218.24512-218.24512 218.24512 97.71008 218.24512 218.24512-97.72032 218.24512-218.24512 218.24512z m238.08-436.48a29.75744 29.75744 0 1 1 0-59.51488 29.75744 29.75744 0 0 1 0 59.51488z m128.96256 29.75744a59.52512 59.52512 0 1 1 0-119.04 59.52512 59.52512 0 0 1 0 119.04zM507.84256 483.52256a59.52512 59.52512 0 1 0 0 119.04 59.52512 59.52512 0 0 0 0-119.04z m367.04256-208.32256a19.84512 19.84512 0 1 0 0 39.69024 19.84512 19.84512 0 0 0 0-39.69024z m-367.04256 89.28256c-98.6112 0-178.56512 79.94368-178.56512 178.56512S409.22112 721.6128 507.84256 721.6128s178.56512-79.94368 178.56512-178.56512-79.95392-178.56512-178.56512-178.56512z m0 277.76c-54.784 0-99.20512-44.41088-99.20512-99.20512 0-54.784 44.41088-99.19488 99.20512-99.19488 54.784 0 99.20512 44.41088 99.20512 99.19488-0.01024 54.784-44.42112 99.20512-99.20512 99.20512z" fill="#FFFFFF" p-id="3785"></path><path d="M41.60512 404.16256v277.76h297.89184c-31.16032-37.7344-49.88928-86.1184-49.88928-138.88512s18.72896-101.15072 49.88928-138.88512H41.60512z m634.58304 0c31.16032 37.7344 49.88928 86.1184 49.88928 138.88512s-18.72896 101.15072-49.88928 138.88512h297.89184V404.16256H676.18816z" fill="#F7D54A" p-id="3786"></path><path d="M507.84256 543.03744m-59.51488 0a59.51488 59.51488 0 1 0 119.02976 0 59.51488 59.51488 0 1 0-119.02976 0Z" fill="#86AEDD" p-id="3787"></path><path d="M507.84256 662.07744v19.83488h19.84512v-19.83488h-19.84512z m132.82304 0h-13.78304v13.78304c4.84352-4.34176 9.44128-8.93952 13.78304-13.78304z m-232.02816-19.83488v19.84512h19.84512v-19.84512h-19.84512z m-19.83488-19.84512v19.84512h19.83488v-19.84512h-19.83488z m-19.84512-19.83488v19.83488h19.84512v-19.83488h-19.84512z m59.52512 59.51488v19.83488h19.84512v-19.83488h-19.84512z m-88.82176-59.51488c2.41664 6.81984 5.21216 13.43488 8.40704 19.83488h1.05472v-19.83488h-9.46176z m207.86176 79.36h19.84512v-19.83488h-19.84512v19.83488z m108.76928-39.68h-9.5744v12.91264c3.36896-4.16768 6.58432-8.45824 9.5744-12.91264z m-188.12928 19.83488v19.83488h19.84512v-19.83488h-19.84512z m198.43072-37.55008c0.3584-0.69632 0.67584-1.42336 1.024-2.11968h-1.05472v2.2016a0.70656 0.70656 0 0 1 0.03072-0.08192z m9.43104-21.9648c2.28352-6.46144 4.25984-13.056 5.79584-19.84512h-15.2576v19.84512h9.46176z m-267.38688-59.52512h-19.83488v19.84512h19.83488v-19.84512z m99.20512 178.56512c5.18144 0 10.28096-0.33792 15.36-0.77824 1.49504-0.13312 3.00032-0.22528 4.48512-0.38912v-18.67776h-19.84512v19.84512z m-39.68-4.57728c2.6112 0.59392 5.24288 1.09568 7.8848 1.5872 3.95264 0.7168 7.91552 1.3824 11.95008 1.82272v-18.67776h-19.84512v15.26784z m-51.21024-134.30784a98.53952 98.53952 0 0 1-6.31808-19.84512h-1.9968v19.84512h8.31488z m11.53024 120.10496c6.41024 3.18464 13.02528 5.9904 19.84512 8.3968v-9.46176h-19.84512v1.06496zM330.4448 562.88256c0.74752 6.74816 1.93536 13.34272 3.40992 19.84512h15.2576v-19.84512H330.4448z m38.51264-19.84512h-19.84512v19.84512h19.84512v-19.84512z m79.4112 79.2576l-0.0512-0.03072v0.13312h0.18432l-0.13312-0.1024z m198.3488-79.2576h-19.84512v19.84512h19.84512v-19.84512z m-57.31328 158.72h-2.2016v1.06496c0.72704-0.36864 1.47456-0.68608 2.2016-1.06496z m30.55616-19.83488h-12.91264v9.5744c4.4544-2.99008 8.74496-6.21568 12.91264-9.5744z m-92.28288-41.6768a98.9184 98.9184 0 0 1-19.83488 1.9968h19.84512v-1.9968z m19.84512 76.77952c6.77888-1.536 13.37344-3.51232 19.84512-5.79584v-9.46176h-19.84512v15.2576z m-59.52512-76.77952a98.53952 98.53952 0 0 1-19.84512-6.31808v8.31488h19.84512v-1.9968z m-59.51488-37.86752v0.18432h0.13312l-0.13312-0.18432z m-19.84512 79.54432v9.5744c5.64224 3.77856 11.5712 7.14752 17.64352 10.27072h2.2016v-19.84512h-19.84512z m39.68 0v19.84512h19.84512v-19.84512h-19.84512z m39.68 0v19.84512h19.84512v-19.84512h-19.84512z m-138.87488-59.52512v2.2016c3.1232 6.07232 6.49216 12.00128 10.27072 17.64352h9.5744v-19.84512h-19.84512z m39.68 39.68v13.78304c2.28352 2.048 4.53632 4.12672 6.92224 6.05184h12.91264v-19.83488h-19.83488z m138.87488 19.84512v19.84512h19.84512v-19.84512h-19.84512z m-158.72-39.68v12.91264c1.92512 2.38592 4.00384 4.63872 6.05184 6.92224h13.78304v-19.84512h-19.83488z m218.24512 39.68h19.84512v-19.83488h-19.84512v19.83488z m59.51488-119.04v19.84512h19.84512v-19.84512h-19.84512z m-79.36 138.87488h19.84512v-19.84512h-19.84512v19.84512z m119.04-158.72h-19.83488v19.84512h18.67776c0.7168-6.52288 1.15712-13.12768 1.15712-19.84512z m-39.68 79.36h19.84512v-19.83488h-19.84512v19.83488z m-19.83488 19.84512h19.84512v-19.84512h-19.84512v19.84512z m-257.92512-59.52512h-19.84512v19.84512h19.84512v-19.84512z m238.08 79.36h19.84512v-19.84512h-19.84512v19.84512z m19.84512-99.19488h-19.84512v19.84512h19.84512v-19.84512z m-59.52512 99.19488h19.84512v-19.84512h-19.84512v19.84512z m39.68-79.36h-8.30464a100.38272 100.38272 0 0 1-5.09952 9.97376l-0.34816 0.5632c-1.86368 3.16416-3.8912 6.1952-6.08256 9.12384v0.18432h19.84512v-19.84512z m-19.83488 19.84512h-0.13312a99.2256 99.2256 0 0 1-19.70176 19.70176v0.13312h19.84512v-19.83488z m19.83488 19.83488h19.84512v-19.83488h-19.84512v19.83488z m-218.23488-39.68v-19.84512h-19.84512v19.84512h19.84512z m198.4 59.52512h19.84512v-19.84512h-19.84512v19.84512z m-19.84512-19.84512h-0.18432a98.07872 98.07872 0 0 1-9.12384 6.08256l-0.5632 0.34816a100.38272 100.38272 0 0 1-9.97376 5.09952v8.31488h19.84512v-19.84512z m59.52512-19.83488h19.84512v-19.84512h-19.84512v19.84512z m-198.4 19.83488v-19.83488h-19.84512v19.83488h19.84512z m-39.68-19.83488h19.83488v-19.84512h-19.83488v19.84512z m59.51488 39.68v-19.84512h-19.84512v19.84512h19.84512z m99.20512 19.83488v-19.84512h-19.84512v19.84512h19.84512z m-79.36 0v-19.84512h-19.84512v19.84512h19.84512z m39.68 0v-19.84512h-19.84512v19.84512h19.84512z" fill="" p-id="3788"></path><path d="M41.60512 781.11744h79.36v-19.83488h-79.36v19.83488z m853.11488-337.27488v19.84512h79.36v-19.84512h-79.36zM81.28512 721.60256H41.60512v19.84512h39.68v-19.84512zM934.4 503.35744h39.68v-19.84512H934.4v19.84512z" fill="#313E4B" p-id="3789"></path><path d="M874.88512 235.52a59.52512 59.52512 0 1 0 0 119.04 59.52512 59.52512 0 0 0 0-119.04z m0 79.36a19.84512 19.84512 0 1 1 0-39.69024 19.84512 19.84512 0 0 1 0 39.69024z m-426.56768-29.75744h119.04a29.75744 29.75744 0 1 0 0-59.51488H448.31744a29.75744 29.75744 0 1 0 0 59.51488z m59.52512 158.72c-54.784 0-99.20512 44.41088-99.20512 99.19488s44.41088 99.20512 99.20512 99.20512c54.784 0 99.20512-44.41088 99.20512-99.20512-0.01024-54.784-44.42112-99.19488-99.20512-99.19488z m0 158.72a59.52512 59.52512 0 1 1 0-119.05024 59.52512 59.52512 0 0 1 0 119.05024z m0-277.76c-120.53504 0-218.24512 97.71008-218.24512 218.23488s97.71008 218.24512 218.24512 218.24512 218.24512-97.71008 218.24512-218.24512-97.72032-218.23488-218.24512-218.23488z m0 396.8c-98.6112 0-178.56512-79.94368-178.56512-178.56512s79.94368-178.56512 178.56512-178.56512S686.40768 444.416 686.40768 543.03744s-79.95392 178.56512-178.56512 178.56512zM934.4 156.16H329.27744c-30.76096 0-61.10208 21.03296-73.92256 50.64704-12.04224 28.49792-40.1408 48.54784-73.02144 48.54784h-11.776a29.75744 29.75744 0 1 0 0-59.51488h-59.52512a29.75744 29.75744 0 1 0 0 59.51488H81.28512a79.36 79.36 0 0 0-79.36 79.36V791.04A79.36 79.36 0 0 0 81.28512 870.4H934.4A79.36 79.36 0 0 0 1013.76 791.04V235.52a79.36 79.36 0 0 0-79.36-79.36z m39.68 634.88a39.72096 39.72096 0 0 1-39.68 39.68H81.28512a39.72096 39.72096 0 0 1-39.68-39.68V334.72512a39.72096 39.72096 0 0 1 39.68-39.68h101.05856c47.872 0 85.42208-23.79776 109.568-72.78592 0 0 9.69728-26.4192 37.376-26.4192H934.4A39.72096 39.72096 0 0 1 974.08 235.52v555.52zM745.92256 265.27744a29.75744 29.75744 0 1 0 0 59.51488 29.75744 29.75744 0 0 0 0-59.51488z" fill="" p-id="3790"></path></svg>