<?xml version="1.0" standalone="no"?><!DOCTYPE svg PUBLIC "-//W3C//DTD SVG 1.1//EN" "http://www.w3.org/Graphics/SVG/1.1/DTD/svg11.dtd"><svg t="1569764140578" class="icon" viewBox="0 0 1029 1024" version="1.1" xmlns="http://www.w3.org/2000/svg" p-id="3403" xmlns:xlink="http://www.w3.org/1999/xlink" width="48.234375" height="48"><defs><style type="text/css"></style></defs><path d="M1006.769363 368.492646a42.97936 42.97936 0 0 0-43.707824-31.32394 83.773328 83.773328 0 0 1-79.402546-43.707823 88.144111 88.144111 0 0 1 0-91.786429 45.164751 45.164751 0 0 0-5.099246-54.63478 509.924607 509.924607 0 0 0-241.121493-145.692745 41.522432 41.522432 0 0 0-48.078605 22.582376 84.501792 84.501792 0 0 1-152.977382 0 41.522432 41.522432 0 0 0-48.078606-22.582376 500.454578 500.454578 0 0 0-241.121493 145.692745 45.164751 45.164751 0 0 0-5.099246 54.63478 88.872574 88.872574 0 0 1 0 91.786429 83.773328 83.773328 0 0 1-79.402546 43.707823 42.97936 42.97936 0 0 0-43.707823 31.32394 552.903967 552.903967 0 0 0 0 287.014708 42.97936 42.97936 0 0 0 43.707823 31.32394 83.773328 83.773328 0 0 1 79.402546 43.707823 88.144111 88.144111 0 0 1 0 91.786429 45.164751 45.164751 0 0 0 5.099246 54.63478 500.454578 500.454578 0 0 0 241.121493 145.692745 41.522432 41.522432 0 0 0 48.078606-22.582376 85.958719 85.958719 0 0 1 76.488691-48.807069 83.773328 83.773328 0 0 1 76.488691 48.807069 41.522432 41.522432 0 0 0 48.078605 22.582376 500.454578 500.454578 0 0 0 241.121493-145.692745 45.164751 45.164751 0 0 0 5.099246-54.63478 88.872574 88.872574 0 0 1 0-91.786429 83.773328 83.773328 0 0 1 79.402546-43.707823 42.97936 42.97936 0 0 0 43.707824-31.32394 552.903967 552.903967 0 0 0 0-287.014708z m-72.846373 233.108392a167.546657 167.546657 0 0 0-121.653442 85.230256 177.016685 177.016685 0 0 0-10.926956 150.791991 423.237424 423.237424 0 0 1-150.79199 89.601038 166.818193 166.818193 0 0 0-265.160796 0 423.237424 423.237424 0 0 1-150.791991-89.601038 177.016685 177.016685 0 0 0-10.926956-150.791991 167.546657 167.546657 0 0 0-121.653442-85.230256 463.302929 463.302929 0 0 1 0-179.202076A167.546657 167.546657 0 0 0 223.670859 337.168706a177.016685 177.016685 0 0 0 10.926956-150.791991A423.237424 423.237424 0 0 1 385.389806 96.775677a167.546657 167.546657 0 0 0 132.580398 65.561735 165.361265 165.361265 0 0 0 132.580398-65.561735 423.237424 423.237424 0 0 1 150.79199 89.601038 177.016685 177.016685 0 0 0 10.926956 150.791991 167.546657 167.546657 0 0 0 121.653442 85.230256 463.302929 463.302929 0 0 1-2.185391 179.202076zM517.970204 293.460883a218.539117 218.539117 0 1 0 212.711407 218.539117A218.539117 218.539117 0 0 0 515.784813 293.460883z m0 349.662587A131.12347 131.12347 0 1 1 645.451355 512 129.666543 129.666543 0 0 1 515.784813 643.12347z" p-id="3404"></path></svg>